<?xml version="1.0" encoding="UTF-8"?><svg id="Layer_1" xmlns="http://www.w3.org/2000/svg" viewBox="0 0 1726.1 740.67"><defs><style>.cls-1,.cls-2{stroke-width:0px;}.cls-2{fill:blue;}</style></defs><path class="cls-2" d="m272.18,240.16v237.56c0,3.77-2.01,7.25-5.27,9.13l-61.06,35.25c-3.26,1.88-5.27,5.37-5.27,9.13v66.09c0,3.77,2.01,7.24,5.27,9.13l123.28,71.29c7.03,4.07,15.82-1.01,15.82-9.13V210.16c0-8.13-8.81-13.2-15.84-9.12l-51.67,30c-3.25,1.89-5.25,5.36-5.25,9.12Z"/><path class="cls-2" d="m120.37,526.83l115.51-66.48c3.27-1.88,5.29-5.37,5.29-9.14V160.13c0-8.08-8.72-13.16-15.75-9.17l-115.51,65.55c-3.3,1.87-5.34,5.38-5.34,9.17v292.01c0,8.11,8.78,13.19,15.81,9.14Z"/><path class="cls-2" d="m306.98,66.09v98.23c0,8.1,8.76,13.18,15.79,9.15l37.08-21.26c7.03-4.03,15.79,1.04,15.79,9.15v419.21c0,8.11,8.78,13.19,15.81,9.14l115.51-66.5c3.27-1.88,5.28-5.37,5.28-9.14V172.87c0-3.76-2-7.24-5.26-9.12l-184.18-106.78c-7.03-4.08-15.83,1-15.83,9.12Z"/><path class="cls-1" d="m704.93,356.84h45.3l55.59,104.05h68.5l-62.26-114.01c.91-.4,1.82-.8,2.72-1.22,15.91-7.45,28.06-18.18,36.47-32.17,8.41-14,12.61-30.74,12.61-50.23s-4.13-36.28-12.4-50.66c-8.26-14.38-20.26-25.51-35.97-33.39-15.72-7.88-34.66-11.82-56.82-11.82h-115.79v293.51h62.05v-104.05Zm41.85-138.73c11.94,0,21.86,1.74,29.74,5.23,7.88,3.49,13.76,8.58,17.63,15.26,3.87,6.69,5.8,14.9,5.8,24.65s-1.93,17.72-5.8,24.22c-3.87,6.5-9.72,11.37-17.56,14.62-7.83,3.25-17.68,4.87-29.52,4.87h-42.13v-88.85h41.85Z"/><path class="cls-1" d="m967.62,328.76c0-8.12,1.58-15.21,4.73-21.28,3.15-6.07,7.43-10.8,12.83-14.19,5.4-3.39,11.49-5.09,18.27-5.09,10.03,0,18.13,3.2,24.29,9.6,6.16,6.4,9.24,15,9.24,25.8v137.29h59.19v-134.43c0-11.47,3.1-20.71,9.31-27.73,6.21-7.02,14.86-10.53,25.94-10.53,9.75,0,17.86,3.06,24.36,9.17,6.5,6.12,9.75,15.29,9.75,27.52v136h60.91v-148.04c0-23.88-6.43-42.35-19.27-55.39-12.85-13.04-29.55-19.56-50.09-19.56-16.15,0-30.12,3.8-41.92,11.39-11.8,7.6-19.94,17.7-24.43,30.31h-2.29c-3.54-12.8-10.6-22.95-21.21-30.45-10.6-7.5-23.46-11.25-38.55-11.25s-27.71,3.73-38.41,11.18c-10.7,7.45-18.34,17.63-22.93,30.53h-2.58v-38.84h-58.18v220.13h61.05v-132.13Z"/><rect class="cls-1" x="1275.73" y="167.38" width="62.05" height="293.51"/><polygon class="cls-1" points="1467.62 460.89 1528.96 460.89 1528.96 218.55 1618.81 218.55 1618.81 167.38 1377.77 167.38 1377.77 218.55 1467.62 218.55 1467.62 460.89"/><path class="cls-1" d="m666.66,553.03l13.13,24.46h11.1l-14.3-26.11c.67-.25,1.31-.52,1.92-.82,3.31-1.66,5.79-3.99,7.44-6.99,1.65-3,2.48-6.47,2.48-10.42s-.82-7.48-2.46-10.52c-1.64-3.04-4.12-5.42-7.43-7.14s-7.47-2.59-12.47-2.59h-23.02v64.59h9.75v-24.44h13.25c.21,0,.41-.01.62-.01Zm-13.87-31.78h12.24c3.22,0,5.82.48,7.81,1.43,1.99.96,3.45,2.33,4.38,4.12s1.4,3.9,1.4,6.34-.46,4.49-1.39,6.21c-.92,1.72-2.38,3.04-4.37,3.94-1.99.9-4.56,1.36-7.71,1.36h-12.36v-23.4Z"/><path class="cls-1" d="m725.23,574.46c1.22-1.18,2.13-2.38,2.74-3.6h.38v6.62h9.21v-32.17c0-3.53-.61-6.41-1.83-8.63-1.22-2.22-2.78-3.93-4.68-5.12-1.9-1.2-3.94-2.02-6.12-2.48-2.18-.45-4.23-.68-6.17-.68-2.92,0-5.71.42-8.36,1.25s-4.99,2.16-7.02,3.97c-2.03,1.82-3.57,4.2-4.62,7.14l8.86,2.02c.69-1.7,1.95-3.25,3.77-4.65,1.82-1.4,4.32-2.1,7.49-2.1s5.35.76,6.89,2.27c1.54,1.51,2.32,3.65,2.32,6.4v.22c0,1.14-.41,1.96-1.23,2.46-.82.5-2.13.87-3.94,1.09-1.81.22-4.16.5-7.07.84-2.29.27-4.54.67-6.75,1.2-2.21.53-4.21,1.3-5.99,2.33s-3.21,2.43-4.26,4.19c-1.05,1.77-1.58,4.02-1.58,6.75,0,3.17.72,5.86,2.16,8.04,1.44,2.19,3.4,3.85,5.88,5,2.48,1.15,5.26,1.72,8.33,1.72,2.67,0,4.96-.39,6.88-1.17,1.91-.78,3.48-1.76,4.7-2.93Zm-16.12-5.25c-1.72-1.19-2.59-2.95-2.59-5.28,0-1.68.45-3.03,1.34-4.05.89-1.02,2.09-1.8,3.6-2.35s3.17-.94,5-1.17c.78-.1,1.75-.24,2.9-.39,1.16-.16,2.34-.34,3.56-.54,1.22-.2,2.31-.44,3.26-.73.96-.28,1.6-.59,1.94-.93v6.24c0,1.91-.49,3.71-1.47,5.38-.98,1.67-2.4,3.02-4.26,4.05-1.86,1.03-4.1,1.55-6.7,1.55s-4.87-.59-6.59-1.78Z"/><path class="cls-1" d="m790.96,577.49v-30.81c0-4.04-.69-7.41-2.07-10.11s-3.31-4.74-5.8-6.1-5.4-2.05-8.72-2.05c-3.76,0-6.81.77-9.15,2.3-2.33,1.53-4.07,3.61-5.2,6.21h-.6v-24.03h-9.3v64.59h9.43v-28.76c0-2.56.5-4.76,1.5-6.58,1-1.82,2.38-3.2,4.13-4.15,1.75-.95,3.75-1.42,5.98-1.42,3.26,0,5.8.98,7.63,2.95,1.83,1.97,2.74,4.73,2.74,8.28v29.68h9.43Z"/><path class="cls-1" d="m841.58,577.49v-32.17c0-3.53-.61-6.41-1.83-8.63-1.22-2.22-2.78-3.93-4.68-5.12-1.9-1.2-3.94-2.02-6.12-2.48-2.18-.45-4.23-.68-6.17-.68-2.92,0-5.71.42-8.36,1.25s-4.99,2.16-7.02,3.97c-2.03,1.82-3.57,4.2-4.62,7.14l8.86,2.02c.69-1.7,1.95-3.25,3.77-4.65,1.82-1.4,4.32-2.1,7.49-2.1s5.35.76,6.89,2.27c1.54,1.51,2.32,3.65,2.32,6.4v.22c0,1.14-.41,1.96-1.23,2.46-.82.5-2.13.87-3.94,1.09-1.81.22-4.16.5-7.07.84-2.29.27-4.54.67-6.75,1.2-2.21.53-4.21,1.3-5.99,2.33s-3.21,2.43-4.26,4.19c-1.05,1.77-1.58,4.02-1.58,6.75,0,3.17.72,5.86,2.16,8.04,1.44,2.19,3.4,3.85,5.88,5,2.48,1.15,5.26,1.72,8.33,1.72,2.67,0,4.96-.39,6.88-1.17,1.91-.78,3.48-1.76,4.7-2.93,1.22-1.18,2.13-2.38,2.74-3.6h.38v6.62h9.21Zm-9.43-17.47c0,1.91-.49,3.71-1.47,5.38-.98,1.67-2.4,3.02-4.26,4.05-1.86,1.03-4.1,1.55-6.7,1.55s-4.87-.59-6.59-1.78c-1.72-1.19-2.59-2.95-2.59-5.28,0-1.68.45-3.03,1.34-4.05.89-1.02,2.09-1.8,3.6-2.35s3.17-.94,5-1.17c.78-.1,1.75-.24,2.9-.39,1.16-.16,2.34-.34,3.56-.54,1.22-.2,2.31-.44,3.26-.73.96-.28,1.6-.59,1.94-.93v6.24Z"/><path class="cls-1" d="m894.57,577.49v-30.81c0-4-.68-7.35-2.05-10.06-1.37-2.71-3.29-4.76-5.77-6.13-2.48-1.38-5.37-2.07-8.67-2.07-3.64,0-6.65.78-9.04,2.33-2.39,1.56-4.14,3.62-5.25,6.18h-.6v-7.88h-9.05v48.44h9.43v-28.76c0-2.56.49-4.76,1.47-6.58.98-1.82,2.31-3.2,4-4.15,1.69-.95,3.63-1.42,5.82-1.42,3.2,0,5.71.99,7.54,2.98,1.83,1.99,2.74,4.74,2.74,8.25v29.68h9.43Z"/><path class="cls-1" d="m949.32,577.49v-64.59h-9.43v24h-.57c-.57-1.01-1.36-2.18-2.38-3.5-1.02-1.32-2.45-2.49-4.29-3.49-1.84-1-4.26-1.5-7.27-1.5-3.89,0-7.37.99-10.44,2.96-3.07,1.98-5.48,4.83-7.24,8.55s-2.63,8.2-2.63,13.44.87,9.72,2.6,13.45c1.73,3.73,4.13,6.6,7.19,8.61,3.06,2.01,6.54,3.01,10.46,3.01,2.94,0,5.34-.49,7.19-1.48,1.85-.99,3.31-2.14,4.37-3.47s1.88-2.5,2.44-3.53h.79v7.54h9.21Zm-10.74-15.27c-.98,2.57-2.41,4.57-4.29,6.01-1.88,1.44-4.18,2.16-6.89,2.16s-5.15-.75-7.05-2.26c-1.9-1.5-3.34-3.55-4.3-6.13-.97-2.59-1.45-5.5-1.45-8.74s.48-6.07,1.43-8.61c.96-2.54,2.38-4.55,4.27-6.02,1.89-1.47,4.26-2.21,7.1-2.21s5.07.7,6.94,2.11c1.87,1.41,3.29,3.38,4.26,5.9.97,2.52,1.45,5.47,1.45,8.83s-.49,6.39-1.47,8.96Z"/><path class="cls-1" d="m993.63,569.1v8.39h9.27v-48.44h-9.46v28.35c.02,2.75-.55,5.03-1.72,6.81s-2.63,3.12-4.38,4.01-3.52,1.32-5.28,1.32c-2.92,0-5.3-.98-7.13-2.93-1.83-1.96-2.74-4.58-2.74-7.88v-29.68h-9.43v30.81c0,4,.68,7.35,2.04,10.06,1.36,2.71,3.23,4.76,5.61,6.13,2.39,1.38,5.14,2.07,8.25,2.07,3.64,0,6.68-.86,9.13-2.57,2.45-1.71,4.23-3.86,5.35-6.45h.5Z"/><path class="cls-1" d="m1050.29,571.23c1.67-2.26,2.51-4.84,2.51-7.74,0-3.43-1.09-6.21-3.28-8.36-2.19-2.15-5.51-3.73-9.97-4.76l-7.7-1.77c-2.67-.63-4.6-1.44-5.8-2.43-1.2-.99-1.8-2.29-1.8-3.91,0-1.87.89-3.4,2.68-4.59,1.79-1.19,4.02-1.78,6.69-1.78,1.96,0,3.58.32,4.89.95,1.3.63,2.34,1.44,3.11,2.43.77.99,1.33,2.03,1.69,3.12l8.55-1.51c-.97-3.78-2.95-6.81-5.96-9.07-3.01-2.26-7.13-3.39-12.36-3.39-3.64,0-6.87.6-9.68,1.81-2.82,1.21-5.03,2.89-6.62,5.03-1.6,2.14-2.4,4.65-2.4,7.51,0,3.45,1.08,6.3,3.23,8.55,2.16,2.25,5.49,3.89,10.01,4.92l8.2,1.8c2.31.53,4.03,1.3,5.16,2.33,1.12,1.03,1.69,2.3,1.69,3.82,0,1.87-.93,3.45-2.78,4.75-1.85,1.29-4.32,1.94-7.41,1.94-2.84,0-5.14-.6-6.91-1.81-1.77-1.21-2.93-3-3.5-5.38l-9.12,1.39c.78,4.29,2.88,7.6,6.31,9.92,3.43,2.32,7.85,3.49,13.28,3.49,3.91,0,7.35-.64,10.33-1.92,2.97-1.28,5.3-3.05,6.97-5.31Z"/><path class="cls-1" d="m1128.99,577.49v-32.49c0-5.55-1.39-9.7-4.18-12.46-2.79-2.75-6.38-4.13-10.77-4.13-3.49,0-6.5.77-9.02,2.32-2.52,1.55-4.36,3.61-5.52,6.2h-.5c-1.05-2.65-2.68-4.73-4.87-6.24-2.2-1.51-4.92-2.27-8.15-2.27s-5.94.75-8.23,2.25c-2.29,1.5-3.94,3.59-4.95,6.26h-.6v-7.88h-9.05v48.44h9.43v-29.87c0-2.19.46-4.11,1.37-5.77.91-1.66,2.12-2.96,3.63-3.9,1.5-.94,3.15-1.4,4.94-1.4,2.63,0,4.76.8,6.4,2.4,1.64,1.6,2.46,3.71,2.46,6.34v32.2h9.4v-30.88c0-2.94.85-5.36,2.55-7.24,1.7-1.88,4.09-2.82,7.16-2.82,2.48,0,4.62.74,6.4,2.21,1.79,1.47,2.68,3.85,2.68,7.13v31.6h9.43Z"/><rect class="cls-1" x="1141.61" y="529.04" width="9.43" height="48.44"/><path class="cls-1" d="m1150.58,511.96c-1.17-1.1-2.57-1.66-4.21-1.66s-3.04.55-4.21,1.66-1.75,2.43-1.75,3.99.58,2.85,1.75,3.96c1.17,1.1,2.57,1.66,4.21,1.66s3.04-.55,4.21-1.66c1.17-1.1,1.75-2.43,1.75-3.99s-.58-2.85-1.75-3.96Z"/><path class="cls-1" d="m1178.62,538c1.69-.95,3.63-1.42,5.82-1.42,3.2,0,5.71.99,7.54,2.98,1.83,1.99,2.74,4.74,2.74,8.25v29.68h9.43v-30.81c0-4-.68-7.35-2.05-10.06-1.37-2.71-3.29-4.76-5.77-6.13-2.48-1.38-5.37-2.07-8.67-2.07-3.64,0-6.65.78-9.04,2.33-2.39,1.56-4.14,3.62-5.25,6.18h-.6v-7.88h-9.05v48.44h9.43v-28.76c0-2.56.49-4.76,1.47-6.58.98-1.82,2.31-3.2,4-4.15Z"/><rect class="cls-1" x="1216.76" y="529.04" width="9.43" height="48.44"/><path class="cls-1" d="m1221.52,510.31c-1.64,0-3.04.55-4.21,1.66s-1.75,2.43-1.75,3.99.58,2.85,1.75,3.96c1.17,1.1,2.57,1.66,4.21,1.66s3.04-.55,4.21-1.66c1.17-1.1,1.75-2.43,1.75-3.99s-.58-2.85-1.75-3.96-2.57-1.66-4.21-1.66Z"/><path class="cls-1" d="m1266.64,576.54c2.97-1.28,5.3-3.05,6.97-5.31,1.67-2.26,2.51-4.84,2.51-7.74,0-3.43-1.09-6.21-3.28-8.36-2.19-2.15-5.51-3.73-9.97-4.76l-7.7-1.77c-2.67-.63-4.6-1.44-5.8-2.43-1.2-.99-1.8-2.29-1.8-3.91,0-1.87.89-3.4,2.68-4.59,1.79-1.19,4.02-1.78,6.69-1.78,1.96,0,3.58.32,4.89.95,1.3.63,2.34,1.44,3.11,2.43.77.99,1.33,2.03,1.69,3.12l8.55-1.51c-.97-3.78-2.95-6.81-5.96-9.07-3.01-2.26-7.13-3.39-12.36-3.39-3.64,0-6.87.6-9.68,1.81-2.82,1.21-5.03,2.89-6.62,5.03-1.6,2.14-2.4,4.65-2.4,7.51,0,3.45,1.08,6.3,3.23,8.55,2.16,2.25,5.49,3.89,10.01,4.92l8.2,1.8c2.31.53,4.03,1.3,5.16,2.33,1.12,1.03,1.69,2.3,1.69,3.82,0,1.87-.93,3.45-2.78,4.75-1.85,1.29-4.32,1.94-7.41,1.94-2.84,0-5.14-.6-6.91-1.81-1.77-1.21-2.93-3-3.5-5.38l-9.12,1.39c.78,4.29,2.88,7.6,6.31,9.92,3.43,2.32,7.85,3.49,13.28,3.49,3.91,0,7.35-.64,10.33-1.92Z"/><path class="cls-1" d="m1309.96,577.11l-1.7-7.79c-.32.06-.76.15-1.32.25-.57.11-1.23.16-1.99.16-1.03,0-1.98-.16-2.85-.49-.87-.33-1.58-.95-2.13-1.86s-.82-2.29-.82-4.12v-26.65h9.94v-7.57h-9.94v-11.61h-9.43v11.61h-7.1v7.57h7.1v28.61c0,2.92.66,5.35,1.99,7.29,1.32,1.93,3.06,3.36,5.2,4.29,2.15.92,4.46,1.37,6.94,1.32,1.51-.02,2.78-.14,3.78-.36,1.01-.22,1.79-.44,2.33-.65Z"/><path class="cls-1" d="m1360.04,565.38l-8.93-1.61c-.57,1.51-1.39,2.79-2.46,3.82-1.07,1.03-2.34,1.8-3.82,2.32-1.47.52-3.1.77-4.89.77-2.75,0-5.16-.59-7.22-1.78-2.06-1.19-3.66-2.92-4.81-5.19-1.06-2.11-1.61-4.66-1.69-7.6h34.41v-3.34c0-4.39-.59-8.13-1.77-11.21-1.18-3.08-2.79-5.59-4.83-7.52-2.04-1.93-4.34-3.35-6.91-4.26-2.57-.9-5.21-1.36-7.95-1.36-4.5,0-8.43,1.06-11.78,3.19-3.35,2.12-5.96,5.08-7.82,8.86-1.86,3.78-2.79,8.16-2.79,13.12s.93,9.4,2.79,13.14c1.86,3.73,4.51,6.62,7.95,8.67,3.44,2.05,7.54,3.08,12.32,3.08,3.53,0,6.68-.54,9.45-1.62s5.07-2.61,6.91-4.57c1.84-1.97,3.12-4.26,3.83-6.89Zm-32.25-22.19c1.06-2.07,2.58-3.75,4.54-5.05,1.97-1.29,4.27-1.94,6.92-1.94,2.44,0,4.57.56,6.39,1.67,1.82,1.11,3.23,2.63,4.24,4.56,1.01,1.92,1.51,4.13,1.51,6.61h-25.15c.12-2.08.61-4.04,1.54-5.85Z"/><path class="cls-1" d="m1412.21,565.38l-8.93-1.61c-.57,1.51-1.39,2.79-2.46,3.82-1.07,1.03-2.34,1.8-3.82,2.32-1.47.52-3.1.77-4.89.77-2.75,0-5.16-.59-7.22-1.78-2.06-1.19-3.66-2.92-4.81-5.19-1.06-2.11-1.61-4.66-1.69-7.6h34.41v-3.34c0-4.39-.59-8.13-1.77-11.21-1.18-3.08-2.79-5.59-4.83-7.52-2.04-1.93-4.34-3.35-6.91-4.26-2.57-.9-5.21-1.36-7.95-1.36-4.5,0-8.43,1.06-11.78,3.19-3.35,2.12-5.96,5.08-7.82,8.86-1.86,3.78-2.79,8.16-2.79,13.12s.93,9.4,2.79,13.14c1.86,3.73,4.51,6.62,7.95,8.67,3.44,2.05,7.54,3.08,12.32,3.08,3.53,0,6.68-.54,9.45-1.62s5.07-2.61,6.91-4.57c1.84-1.97,3.12-4.26,3.83-6.89Zm-32.25-22.19c1.06-2.07,2.58-3.75,4.54-5.05,1.97-1.29,4.27-1.94,6.92-1.94,2.44,0,4.57.56,6.39,1.67,1.82,1.11,3.23,2.63,4.24,4.56,1.01,1.92,1.51,4.13,1.51,6.61h-25.15c.12-2.08.61-4.04,1.54-5.85Z"/><path class="cls-1" d="m1445.23,528.32c-2.84,0-5.38.75-7.62,2.26s-3.8,3.56-4.68,6.17h-.5v-7.7h-9.12v48.44h9.43v-29.58c0-2.1.5-3.98,1.51-5.63,1.01-1.65,2.38-2.94,4.12-3.88s3.72-1.4,5.95-1.4c.97,0,1.93.07,2.9.21.97.14,1.64.26,2.02.36v-9.02c-.46-.06-1.1-.12-1.91-.16-.81-.04-1.51-.06-2.1-.06Z"/><path class="cls-1" d="m1466.41,511.96c-1.17-1.1-2.57-1.66-4.21-1.66s-3.04.55-4.21,1.66-1.75,2.43-1.75,3.99.58,2.85,1.75,3.96c1.17,1.1,2.57,1.66,4.21,1.66s3.04-.55,4.21-1.66c1.17-1.1,1.75-2.43,1.75-3.99s-.58-2.85-1.75-3.96Z"/><rect class="cls-1" x="1457.43" y="529.04" width="9.43" height="48.44"/><path class="cls-1" d="m1509.92,569.1h.5v8.39h9.27v-48.44h-9.46v28.35c.02,2.75-.55,5.03-1.72,6.81s-2.63,3.12-4.38,4.01-3.52,1.32-5.28,1.32c-2.92,0-5.3-.98-7.13-2.93-1.83-1.96-2.74-4.58-2.74-7.88v-29.68h-9.43v30.81c0,4,.68,7.35,2.04,10.06,1.36,2.71,3.23,4.76,5.61,6.13,2.39,1.38,5.14,2.07,8.25,2.07,3.64,0,6.68-.86,9.13-2.57,2.45-1.71,4.23-3.86,5.35-6.45Z"/><path class="cls-1" d="m1583.24,528.41c-3.49,0-6.5.77-9.02,2.32-2.52,1.55-4.36,3.61-5.52,6.2h-.5c-1.05-2.65-2.68-4.73-4.87-6.24-2.2-1.51-4.92-2.27-8.15-2.27s-5.94.75-8.23,2.25c-2.29,1.5-3.94,3.59-4.95,6.26h-.6v-7.88h-9.05v48.44h9.43v-29.87c0-2.19.46-4.11,1.37-5.77.91-1.66,2.12-2.96,3.63-3.9,1.5-.94,3.15-1.4,4.94-1.4,2.63,0,4.76.8,6.4,2.4,1.64,1.6,2.46,3.71,2.46,6.34v32.2h9.4v-30.88c0-2.94.85-5.36,2.55-7.24,1.7-1.88,4.09-2.82,7.16-2.82,2.48,0,4.62.74,6.4,2.21,1.79,1.47,2.68,3.85,2.68,7.13v31.6h9.43v-32.49c0-5.55-1.39-9.7-4.18-12.46-2.79-2.75-6.38-4.13-10.77-4.13Z"/><rect class="cls-1" x="1610.81" y="529.04" width="9.43" height="48.44"/><path class="cls-1" d="m1615.57,521.57c1.64,0,3.04-.55,4.21-1.66,1.17-1.1,1.75-2.43,1.75-3.99s-.58-2.85-1.75-3.96-2.57-1.66-4.21-1.66-3.04.55-4.21,1.66-1.75,2.43-1.75,3.99.58,2.85,1.75,3.96c1.17,1.1,2.57,1.66,4.21,1.66Z"/><rect class="cls-1" x="643.04" y="601.37" width="9.75" height="64.59"/><path class="cls-1" d="m698.84,618.96c-2.48-1.38-5.37-2.07-8.67-2.07-3.64,0-6.65.78-9.04,2.33-2.39,1.56-4.14,3.62-5.25,6.18h-.6v-7.88h-9.05v48.44h9.43v-28.76c0-2.57.49-4.76,1.47-6.58.98-1.82,2.31-3.2,4-4.15s3.63-1.42,5.82-1.42c3.2,0,5.71.99,7.54,2.98,1.83,1.99,2.74,4.74,2.74,8.25v29.68h9.43v-30.81c0-4-.68-7.35-2.05-10.06-1.37-2.71-3.29-4.76-5.77-6.13Z"/><path class="cls-1" d="m736.84,598.35c-2.57,0-4.94.5-7.13,1.5-2.19,1-3.94,2.5-5.27,4.51-1.32,2.01-1.99,4.53-1.99,7.55v5.61h-7.51v7.57h7.51v40.88h9.43v-40.88h10.44v-7.57h-10.44v-4.35c0-2.14.49-3.79,1.47-4.92.98-1.14,2.61-1.7,4.9-1.7.99,0,1.83.09,2.52.27.69.18,1.26.33,1.7.46l2.21-7.63c-.65-.25-1.65-.53-3-.84s-2.96-.46-4.86-.46Z"/><path class="cls-1" d="m782.41,620.01c-3.39-2.08-7.35-3.12-11.89-3.12s-8.5,1.04-11.89,3.12c-3.38,2.08-6.01,5-7.88,8.77s-2.81,8.16-2.81,13.18.94,9.38,2.81,13.12c1.87,3.74,4.5,6.66,7.88,8.74,3.39,2.08,7.35,3.12,11.89,3.12s8.5-1.04,11.89-3.12c3.38-2.08,6.01-4.99,7.88-8.74,1.87-3.74,2.81-8.12,2.81-13.12s-.94-9.42-2.81-13.18c-1.87-3.76-4.5-6.69-7.88-8.77Zm-.24,30.47c-.94,2.59-2.37,4.66-4.3,6.21-1.93,1.56-4.37,2.33-7.32,2.33s-5.42-.78-7.36-2.33c-1.95-1.56-3.39-3.63-4.32-6.21-.94-2.59-1.4-5.44-1.4-8.55s.47-5.93,1.4-8.53c.93-2.6,2.38-4.68,4.32-6.26,1.94-1.58,4.4-2.37,7.36-2.37s5.38.79,7.32,2.37c1.93,1.58,3.37,3.66,4.3,6.26.94,2.6,1.4,5.44,1.4,8.53s-.47,5.96-1.4,8.55Z"/><path class="cls-1" d="m824.08,658.05c-.57.11-1.23.16-1.99.16-1.03,0-1.98-.16-2.85-.49-.87-.33-1.58-.95-2.13-1.86s-.82-2.29-.82-4.12v-26.65h9.94v-7.57h-9.94v-11.61h-9.43v11.61h-7.1v7.57h7.1v28.61c0,2.92.66,5.35,1.99,7.29,1.32,1.93,3.06,3.36,5.2,4.29,2.15.92,4.46,1.37,6.94,1.32,1.51-.02,2.78-.14,3.78-.36,1.01-.22,1.79-.44,2.33-.65l-1.7-7.79c-.32.06-.76.15-1.32.25Z"/><path class="cls-1" d="m871.19,622.51c-2.04-1.93-4.34-3.35-6.91-4.26-2.57-.9-5.21-1.36-7.95-1.36-4.5,0-8.43,1.06-11.78,3.19-3.35,2.12-5.96,5.08-7.82,8.86-1.86,3.79-2.79,8.16-2.79,13.12s.93,9.4,2.79,13.14c1.86,3.73,4.51,6.62,7.95,8.67,3.44,2.05,7.54,3.08,12.32,3.08,3.53,0,6.68-.54,9.45-1.62s5.07-2.61,6.91-4.57c1.84-1.97,3.12-4.26,3.83-6.89l-8.93-1.61c-.57,1.51-1.39,2.79-2.46,3.82-1.07,1.03-2.34,1.8-3.82,2.32-1.47.52-3.1.77-4.89.77-2.75,0-5.16-.59-7.22-1.78-2.06-1.19-3.66-2.92-4.81-5.19-1.06-2.11-1.61-4.66-1.69-7.6h34.41v-3.34c0-4.39-.59-8.13-1.77-11.21-1.18-3.08-2.79-5.59-4.83-7.52Zm-27.8,15.01c.12-2.08.61-4.04,1.54-5.85,1.06-2.07,2.58-3.75,4.54-5.05,1.97-1.29,4.27-1.94,6.92-1.94,2.44,0,4.57.56,6.39,1.67,1.82,1.11,3.23,2.63,4.24,4.56,1.01,1.92,1.51,4.13,1.51,6.61h-25.15Z"/><path class="cls-1" d="m921.26,618.94c-2.49-1.37-5.4-2.05-8.72-2.05-3.76,0-6.81.77-9.15,2.3-2.33,1.54-4.07,3.61-5.2,6.21h-.6v-24.03h-9.3v64.59h9.43v-28.76c0-2.57.5-4.76,1.5-6.58,1-1.82,2.38-3.2,4.13-4.15,1.75-.95,3.75-1.42,5.98-1.42,3.26,0,5.8.98,7.63,2.95,1.83,1.97,2.74,4.73,2.74,8.28v29.68h9.43v-30.81c0-4.04-.69-7.41-2.07-10.11-1.38-2.7-3.31-4.74-5.8-6.1Z"/><path class="cls-1" d="m974.36,618.96c-2.48-1.38-5.37-2.07-8.67-2.07-3.64,0-6.65.78-9.04,2.33-2.39,1.56-4.14,3.62-5.25,6.18h-.6v-7.88h-9.05v48.44h9.43v-28.76c0-2.57.49-4.76,1.47-6.58.98-1.82,2.31-3.2,4-4.15s3.63-1.42,5.82-1.42c3.2,0,5.71.99,7.54,2.98,1.83,1.99,2.74,4.74,2.74,8.25v29.68h9.43v-30.81c0-4-.68-7.35-2.05-10.06-1.37-2.71-3.29-4.76-5.77-6.13Z"/><path class="cls-1" d="m1027.09,620.01c-3.39-2.08-7.35-3.12-11.89-3.12s-8.5,1.04-11.89,3.12c-3.38,2.08-6.01,5-7.88,8.77s-2.81,8.16-2.81,13.18.94,9.38,2.81,13.12c1.87,3.74,4.5,6.66,7.88,8.74,3.39,2.08,7.35,3.12,11.89,3.12s8.5-1.04,11.89-3.12c3.38-2.08,6.01-4.99,7.88-8.74,1.87-3.74,2.81-8.12,2.81-13.12s-.94-9.42-2.81-13.18c-1.87-3.76-4.5-6.69-7.88-8.77Zm-.24,30.47c-.94,2.59-2.37,4.66-4.3,6.21-1.93,1.56-4.37,2.33-7.32,2.33s-5.42-.78-7.36-2.33c-1.95-1.56-3.39-3.63-4.32-6.21-.94-2.59-1.4-5.44-1.4-8.55s.47-5.93,1.4-8.53c.93-2.6,2.38-4.68,4.32-6.26,1.94-1.58,4.4-2.37,7.36-2.37s5.38.79,7.32,2.37c1.93,1.58,3.37,3.66,4.3,6.26.94,2.6,1.4,5.44,1.4,8.53s-.47,5.96-1.4,8.55Z"/><rect class="cls-1" x="1048.28" y="601.37" width="9.43" height="64.59"/><path class="cls-1" d="m1102.69,620.01c-3.39-2.08-7.35-3.12-11.89-3.12s-8.5,1.04-11.89,3.12c-3.38,2.08-6.01,5-7.88,8.77s-2.81,8.16-2.81,13.18.94,9.38,2.81,13.12c1.87,3.74,4.5,6.66,7.88,8.74,3.39,2.08,7.35,3.12,11.89,3.12s8.5-1.04,11.89-3.12c3.38-2.08,6.01-4.99,7.88-8.74,1.87-3.74,2.81-8.12,2.81-13.12s-.94-9.42-2.81-13.18c-1.87-3.76-4.5-6.69-7.88-8.77Zm-.24,30.47c-.94,2.59-2.37,4.66-4.3,6.21-1.93,1.56-4.37,2.33-7.32,2.33s-5.42-.78-7.36-2.33c-1.95-1.56-3.39-3.63-4.32-6.21-.94-2.59-1.4-5.44-1.4-8.55s.47-5.93,1.4-8.53c.93-2.6,2.38-4.68,4.32-6.26,1.94-1.58,4.4-2.37,7.36-2.37s5.38.79,7.32,2.37c1.93,1.58,3.37,3.66,4.3,6.26.94,2.6,1.4,5.44,1.4,8.53s-.47,5.96-1.4,8.55Z"/><path class="cls-1" d="m1156.18,620.01c-3.39-2.08-7.35-3.12-11.89-3.12s-8.5,1.04-11.89,3.12c-3.38,2.08-6.01,5-7.88,8.77s-2.81,8.16-2.81,13.18.94,9.38,2.81,13.12c1.87,3.74,4.5,6.66,7.88,8.74,3.39,2.08,7.35,3.12,11.89,3.12s8.5-1.04,11.89-3.12c3.38-2.08,6.01-4.99,7.88-8.74,1.87-3.74,2.81-8.12,2.81-13.12s-.94-9.42-2.81-13.18c-1.87-3.76-4.5-6.69-7.88-8.77Zm-.24,30.47c-.94,2.59-2.37,4.66-4.3,6.21-1.93,1.56-4.37,2.33-7.32,2.33s-5.42-.78-7.36-2.33c-1.95-1.56-3.39-3.63-4.32-6.21-.94-2.59-1.4-5.44-1.4-8.55s.47-5.93,1.4-8.53c.93-2.6,2.38-4.68,4.32-6.26,1.94-1.58,4.4-2.37,7.36-2.37s5.38.79,7.32,2.37c1.93,1.58,3.37,3.66,4.3,6.26.94,2.6,1.4,5.44,1.4,8.53s-.47,5.96-1.4,8.55Z"/><path class="cls-1" d="m1210.3,625.38h-.69c-.57-1.01-1.37-2.18-2.41-3.5-1.04-1.33-2.49-2.49-4.34-3.49-1.85-1-4.28-1.5-7.29-1.5-3.89,0-7.37.98-10.44,2.95s-5.48,4.79-7.24,8.47c-1.76,3.68-2.63,8.1-2.63,13.25s.89,9.49,2.67,13.01c1.78,3.52,4.19,6.18,7.25,7.98,3.06,1.8,6.5,2.7,10.33,2.7,2.96,0,5.37-.46,7.22-1.39s3.31-2.02,4.37-3.28,1.88-2.41,2.44-3.44h.6v9.52c0,3.78-1.17,6.54-3.5,8.28-2.33,1.73-5.29,2.6-8.86,2.6-2.61,0-4.74-.37-6.39-1.1-1.65-.74-2.95-1.62-3.91-2.67s-1.72-2.02-2.29-2.95l-8.11,3.34c.86,1.98,2.17,3.8,3.91,5.46,1.74,1.66,4,3,6.76,4.01s6.07,1.51,9.92,1.51c4.12,0,7.83-.64,11.12-1.92,3.29-1.28,5.9-3.26,7.84-5.93,1.93-2.67,2.9-6.09,2.9-10.25v-49.52h-9.24v7.85Zm-1.53,24.65c-.98,2.39-2.41,4.22-4.29,5.49-1.88,1.27-4.18,1.91-6.89,1.91s-5.15-.67-7.05-2.02c-1.9-1.35-3.34-3.22-4.3-5.61-.97-2.4-1.45-5.18-1.45-8.36s.48-5.89,1.43-8.39c.96-2.5,2.38-4.48,4.27-5.95,1.89-1.46,4.26-2.19,7.1-2.19s5.07.7,6.94,2.1c1.87,1.4,3.29,3.34,4.26,5.82s1.45,5.35,1.45,8.61-.49,6.21-1.47,8.59Z"/><path class="cls-1" d="m1236.95,598.79c-1.64,0-3.04.55-4.21,1.66-1.17,1.1-1.75,2.43-1.75,3.99s.58,2.85,1.75,3.96c1.17,1.1,2.57,1.66,4.21,1.66s3.04-.55,4.21-1.66c1.17-1.1,1.75-2.43,1.75-3.99s-.58-2.85-1.75-3.96c-1.17-1.1-2.57-1.66-4.21-1.66Z"/><rect class="cls-1" x="1232.19" y="617.52" width="9.43" height="48.44"/><path class="cls-1" d="m1285.79,620.05c-1.9-1.2-3.94-2.02-6.12-2.48-2.18-.45-4.23-.68-6.17-.68-2.92,0-5.71.42-8.36,1.25-2.65.83-4.99,2.16-7.02,3.97-2.03,1.82-3.57,4.2-4.62,7.14l8.86,2.02c.69-1.7,1.95-3.25,3.77-4.65,1.82-1.4,4.32-2.1,7.49-2.1s5.35.76,6.89,2.27c1.54,1.51,2.32,3.65,2.32,6.4v.22c0,1.14-.41,1.96-1.23,2.46-.82.5-2.13.87-3.94,1.09-1.81.22-4.16.5-7.07.84-2.29.27-4.54.67-6.75,1.2s-4.21,1.3-5.99,2.33-3.21,2.43-4.26,4.19c-1.05,1.77-1.58,4.02-1.58,6.75,0,3.17.72,5.86,2.16,8.04s3.4,3.85,5.88,5c2.48,1.15,5.26,1.72,8.33,1.72,2.67,0,4.96-.39,6.88-1.17s3.48-1.76,4.7-2.93c1.22-1.18,2.13-2.38,2.74-3.6h.38v6.62h9.21v-32.17c0-3.53-.61-6.41-1.83-8.63-1.22-2.22-2.78-3.93-4.68-5.13Zm-2.92,28.45c0,1.91-.49,3.71-1.47,5.38-.98,1.67-2.4,3.02-4.26,4.05-1.86,1.03-4.1,1.55-6.7,1.55s-4.87-.59-6.59-1.78c-1.72-1.19-2.59-2.95-2.59-5.28,0-1.68.45-3.03,1.34-4.05.89-1.02,2.09-1.8,3.6-2.35s3.17-.94,5-1.17c.78-.11,1.75-.24,2.9-.39s2.34-.34,3.56-.54c1.22-.2,2.31-.44,3.26-.73.96-.28,1.6-.59,1.94-.93v6.24Z"/><polygon class="cls-1" points="1345.69 617.52 1334.4 617.52 1315.1 638.02 1314.28 638.02 1314.28 601.37 1304.85 601.37 1304.85 665.97 1314.28 665.97 1314.28 648.78 1318.97 644.1 1335.44 665.97 1347.02 665.97 1326.08 638.32 1345.69 617.52"/><path class="cls-1" d="m1387.33,622.51c-2.04-1.93-4.34-3.35-6.91-4.26-2.57-.9-5.21-1.36-7.95-1.36-4.5,0-8.43,1.06-11.78,3.19-3.35,2.12-5.96,5.08-7.82,8.86-1.86,3.79-2.79,8.16-2.79,13.12s.93,9.4,2.79,13.14c1.86,3.73,4.51,6.62,7.95,8.67,3.44,2.05,7.54,3.08,12.32,3.08,3.53,0,6.68-.54,9.45-1.62s5.07-2.61,6.91-4.57c1.84-1.97,3.12-4.26,3.83-6.89l-8.93-1.61c-.57,1.51-1.39,2.79-2.46,3.82-1.07,1.03-2.34,1.8-3.82,2.32-1.47.52-3.1.77-4.89.77-2.75,0-5.16-.59-7.22-1.78-2.06-1.19-3.66-2.92-4.81-5.19-1.06-2.11-1.61-4.66-1.69-7.6h34.41v-3.34c0-4.39-.59-8.13-1.77-11.21-1.18-3.08-2.79-5.59-4.83-7.52Zm-27.8,15.01c.12-2.08.61-4.04,1.54-5.85,1.06-2.07,2.58-3.75,4.54-5.05,1.97-1.29,4.27-1.94,6.92-1.94,2.44,0,4.57.56,6.39,1.67,1.82,1.11,3.23,2.63,4.24,4.56,1.01,1.92,1.51,4.13,1.51,6.61h-25.15Z"/><path class="cls-1" d="m1428.42,638.84l-7.7-1.77c-2.67-.63-4.6-1.44-5.8-2.43s-1.8-2.29-1.8-3.91c0-1.87.89-3.4,2.68-4.59,1.79-1.19,4.02-1.78,6.69-1.78,1.96,0,3.58.32,4.89.95s2.34,1.44,3.11,2.43,1.33,2.03,1.69,3.12l8.55-1.51c-.97-3.78-2.95-6.81-5.96-9.07s-7.13-3.39-12.36-3.39c-3.64,0-6.87.6-9.68,1.81-2.82,1.21-5.03,2.89-6.62,5.03-1.6,2.15-2.4,4.65-2.4,7.51,0,3.45,1.08,6.3,3.23,8.55,2.16,2.25,5.49,3.89,10.01,4.92l8.2,1.8c2.31.53,4.03,1.3,5.16,2.33,1.12,1.03,1.69,2.3,1.69,3.82,0,1.87-.93,3.45-2.78,4.75-1.85,1.29-4.32,1.94-7.41,1.94-2.84,0-5.14-.6-6.91-1.81-1.77-1.21-2.93-3-3.5-5.38l-9.12,1.39c.78,4.29,2.88,7.6,6.31,9.92,3.43,2.32,7.85,3.49,13.28,3.49,3.91,0,7.35-.64,10.33-1.92,2.97-1.28,5.3-3.05,6.97-5.31,1.67-2.26,2.51-4.84,2.51-7.74,0-3.43-1.09-6.21-3.28-8.36s-5.51-3.73-9.97-4.76Z"/><polygon class="cls-1" points="1492.85 617.52 1481.56 617.52 1462.26 638.02 1461.44 638.02 1461.44 601.37 1452.01 601.37 1452.01 665.97 1461.44 665.97 1461.44 648.78 1466.13 644.1 1482.6 665.97 1494.18 665.97 1473.24 638.32 1492.85 617.52"/><path class="cls-1" d="m1532.12,645.88c.02,2.75-.55,5.03-1.72,6.81-1.17,1.79-2.63,3.12-4.38,4.01-1.76.88-3.52,1.33-5.28,1.33-2.92,0-5.3-.98-7.13-2.93-1.83-1.96-2.74-4.58-2.74-7.88v-29.68h-9.43v30.81c0,4,.68,7.35,2.04,10.06,1.36,2.71,3.23,4.76,5.61,6.13,2.39,1.38,5.14,2.07,8.25,2.07,3.64,0,6.68-.86,9.13-2.57,2.45-1.71,4.23-3.86,5.35-6.45h.5v8.39h9.27v-48.44h-9.46v28.35Z"/><path class="cls-1" d="m1578.23,638.84l-7.7-1.77c-2.67-.63-4.6-1.44-5.8-2.43s-1.8-2.29-1.8-3.91c0-1.87.89-3.4,2.68-4.59,1.79-1.19,4.02-1.78,6.69-1.78,1.96,0,3.58.32,4.89.95s2.34,1.44,3.11,2.43,1.33,2.03,1.69,3.12l8.55-1.51c-.97-3.78-2.95-6.81-5.96-9.07s-7.13-3.39-12.36-3.39c-3.64,0-6.87.6-9.68,1.81-2.82,1.21-5.03,2.89-6.62,5.03-1.6,2.15-2.4,4.65-2.4,7.51,0,3.45,1.08,6.3,3.23,8.55,2.16,2.25,5.49,3.89,10.01,4.92l8.2,1.8c2.31.53,4.03,1.3,5.16,2.33,1.12,1.03,1.69,2.3,1.69,3.82,0,1.87-.93,3.45-2.78,4.75-1.85,1.29-4.32,1.94-7.41,1.94-2.84,0-5.14-.6-6.91-1.81-1.77-1.21-2.93-3-3.5-5.38l-9.12,1.39c.78,4.29,2.88,7.6,6.31,9.92,3.43,2.32,7.85,3.49,13.28,3.49,3.91,0,7.35-.64,10.33-1.92,2.97-1.28,5.3-3.05,6.97-5.31,1.67-2.26,2.51-4.84,2.51-7.74,0-3.43-1.09-6.21-3.28-8.36s-5.51-3.73-9.97-4.76Z"/></svg>