<svg version="1.1" id="Layer_1" xmlns="http://www.w3.org/2000/svg" xmlns:xlink="http://www.w3.org/1999/xlink" x="0px" y="0px" viewBox="0 0 94.2 114.8" style="enable-background:new 0 0 94.2 114.8;" xml:space="preserve">
    <style type="text/css">
        .st0 {
            fill: #0f3c60;
        }
        .st1 {
            fill: #ffffff;
        }
    </style>
    <path class="st0" d="M89.7,3.7h0.5c0.6,0,1-0.2,1-0.7c0-0.4-0.3-0.8-1-0.8c-0.2,0-0.4,0-0.5,0V3.7L89.7,3.7z M89.7,6.1H89V1.8c0.4-0.1,0.7-0.1,1.2-0.1c0.6,0,1.1,0.1,1.3,0.3C91.8,2.2,92,2.5,92,2.9c0,0.6-0.4,0.9-0.8,1v0c0.4,0.1,0.6,0.4,0.7,1c0.1,0.7,0.2,0.9,0.3,1.1h-0.7c-0.1-0.1-0.2-0.5-0.3-1.1c-0.1-0.5-0.4-0.7-0.9-0.7h-0.5V6.1L89.7,6.1z M90.4,0.6c-1.7,0-3.1,1.4-3.1,3.2c0,1.8,1.4,3.2,3.1,3.2c1.7,0,3.1-1.4,3.1-3.2C93.5,2,92.1,0.6,90.4,0.6L90.4,0.6L90.4,0.6z M90.4,0c2.1,0,3.8,1.7,3.8,3.8c0,2.2-1.7,3.8-3.8,3.8c-2.1,0-3.8-1.7-3.8-3.8C86.6,1.7,88.3,0,90.4,0L90.4,0L90.4,0z"></path>
    <path class="st1" d="M13.9,111.9c-6.1,0-11.1-5-11.1-11.1V18.1C2.9,12,7.8,7,13.9,7h59.6c6.1,0,11.1,5,11.1,11.1v82.7c0,6.1-5,11.1-11.1,11.1H13.9z"></path>
    <path class="st0" d="M11.5,22.7v73.5c0,3.6,2.6,6.5,6.1,6.5h52.2c3.4,0,6.2-2.9,6.2-6.5V22.7c0-3.6-2.6-6.5-6.1-6.5H17.7C14.3,16.2,11.5,19.1,11.5,22.7"></path>
    <path class="st0" d="M73.6,114.8H13.9c-7.7,0-13.9-6.3-13.9-13.9V18.1C0,10.4,6.3,4.2,13.9,4.2h59.6c7.7,0,13.9,6.3,13.9,13.9v82.7C87.5,108.5,81.3,114.8,73.6,114.8z M13.9,9c-5,0-9.1,4.1-9.1,9.1v82.7c0,5,4.1,9.1,9.1,9.1h59.6c5,0,9.1-4.1,9.1-9.1V18.1c0-5-4.1-9.1-9.1-9.1H13.9z"></path>
    <g>
        <path class="st1" d="M69.4,89.4c-1-0.5-1.6-0.9-1.9-1.1c-0.3-0.2-0.7-0.7-0.7-1.2V52.9c0,0,0-0.2,0-0.7c0-1.2-0.3-1.8-1.8-1.8c-1.1,0-1.8,0-1.8,0s-8.8,0-9.5,0c-1,0.1-1.5,0.5-1.3,1.4c0.1,0.8,0.9,1.1,1.7,1.7c0.9,0.7,1,0.7,1.4,1.2c0.2,0.3,0.3,0.7,0.3,1.5l0,22.5c0,0.2-0.1,0.3-0.2,0.5c-0.1,0.4-0.3,0.6-0.5,0.8c-0.1,0.2-0.4,0.6-0.7,0.8c-1.2,1.2-2.3,1.2-3.5,0.5c-0.4-0.2-1-0.9-1-2c0-0.3,0-29.2,0-29.2c0-0.6,0.2-0.7,0.9-0.7l5.5,0c0.9-0.1,1-1.1,1-1.4c0-0.3,0-2.4,0-2.7c0-0.6,0-1.4-0.8-1.5h-5.7c-0.6-0.1-0.8-0.1-0.9-0.7c0-0.6,0-10.4,0-10.4c-0.1-1.3-0.4-1.6-1-1.8c-0.7-0.3-0.6-0.1-1.1-0.1c-0.5,0-1.2,0.4-1.4,0.8c-0.2,0.5-0.5,1.1-0.5,1.1c-1.5,3.5-3.6,6.2-5.5,8.2c0-0.7,0.1-1.7,0-2c-0.1-0.6,0-1.4-0.9-1.5h-5.6c-0.6,0-0.8-0.1-0.9-0.7c0-0.6,0-10.4,0-10.4c-0.1-1.3-0.4-1.6-1-1.8c-0.7-0.3-0.6-0.1-1.1-0.1c-0.5,0-1.2,0.4-1.4,0.8c-0.2,0.5-0.5,1.1-0.5,1.1c-3.4,8-9.8,11.9-11.2,12.9c-1.4,1-1.4,3.5,0.6,3.5c2,0,3.5-0.1,3.7,2.9v27.2c0.4,4.4,3.1,6.3,4.6,7c1.8,0.7,4.5,1,6.3,0.6c2.4-0.4,3.9-0.8,6-3.9v2.8c0.4,4.4,3.1,6.4,4.6,6.9c1.8,0.7,4.5,1,6.2,0.7c2.3-0.4,3.9-0.8,5.9-3.7l0,3.8c0,0.5-0.4,1.1-0.7,1.2c-0.3,0.2-1,0.6-2,1.1c-0.9,0.5-1.3,1-1.4,1.6c0,0.9,0.4,1.4,1.5,1.5c1,0,6.6,0,6.6,0h5c0,0,3.6,0,4.5,0c1,0,1.5-0.5,1.5-1.5C70.7,90.6,70.3,89.9,69.4,89.4z M38.9,72.4c0,0.2-0.1,0.3-0.2,0.5c-0.1,0.4-0.3,0.6-0.5,0.8c-0.1,0.2-0.4,0.6-0.7,0.8c-1.2,1.2-2.4,1.2-3.7,0.5c-0.4-0.2-1-0.9-1-2c0-0.5,0-29.2,0-29.2c0-0.7,0.3-0.7,0.9-0.8h4.3c-1.6,1.3-2.9,2.2-3.4,2.6c-1.4,1-1.4,3.5,0.6,3.5c2,0.1,3.5-0.1,3.7,2.9V72.4z"></path>
        <path class="st1" d="M61,44.5c3.5,0,6.4-2.9,6.4-6.6c0-3.6-2.8-6.6-6.4-6.6c-3.5,0-6.4,2.9-6.4,6.6C54.6,41.6,57.5,44.5,61,44.5z"></path>
    </g>
</svg>